<?xml version="1.0" standalone="no"?><!DOCTYPE svg PUBLIC "-//W3C//DTD SVG 1.1//EN" "http://www.w3.org/Graphics/SVG/1.1/DTD/svg11.dtd"><svg t="1561518406673" class="icon" viewBox="0 0 1024 1024" version="1.1" xmlns="http://www.w3.org/2000/svg" p-id="5354" xmlns:xlink="http://www.w3.org/1999/xlink" width="200" height="200"><defs><style type="text/css"></style></defs><path d="M576.365714 705.097143H193.097143c-76.068571-58.514286-128.731429-149.211429-128.731429-257.462857 0-175.542857 143.36-318.902857 318.902857-318.902857S702.171429 272.091429 702.171429 447.634286c2.925714 105.325714-49.737143 198.948571-125.805715 257.462857z m-99.474285-228.205714L351.085714 351.085714H286.72l-160.914286 193.097143v32.182857h64.365715l128.731428-160.914285 128.731429 128.731428h64.365714l128.731429-160.914286v-64.365714h-32.182858l-131.657142 157.988572z" fill="#F8E71C" p-id="5355"></path><path d="M447.634286 959.634286h-128.731429c-20.48 0-32.182857 11.702857-32.182857 32.182857s11.702857 32.182857 32.182857 32.182857h128.731429c20.48 0 32.182857-11.702857 32.182857-32.182857s-11.702857-32.182857-32.182857-32.182857z m64.365714-128.731429H257.462857c-20.48 0-32.182857 11.702857-32.182857 32.182857s11.702857 32.182857 32.182857 32.182857h257.462857c20.48 0 32.182857-11.702857 32.182857-32.182857s-14.628571-32.182857-35.108571-32.182857zM1024 225.28C1024 99.474286 924.525714 0 798.72 0v64.365714c90.697143 0 160.914286 70.217143 160.914286 160.914286H1024zM383.268571 64.365714C172.617143 64.365714 0 236.982857 0 447.634286c0 134.582857 67.291429 251.611429 172.617143 318.902857h424.228571c102.4-67.291429 172.617143-184.32 172.617143-318.902857 0-210.651429-175.542857-383.268571-386.194286-383.268572z m193.097143 640.731429H193.097143c-76.068571-58.514286-128.731429-149.211429-128.731429-257.462857 0-175.542857 143.36-318.902857 318.902857-318.902857S702.171429 272.091429 702.171429 447.634286c2.925714 105.325714-49.737143 198.948571-125.805715 257.462857z m222.354286-576.365714v64.365714c20.48 0 32.182857 11.702857 32.182857 32.182857h64.365714c0-55.588571-40.96-96.548571-96.548571-96.548571z m-321.828571 348.16L351.085714 351.085714H286.72l-160.914286 193.097143v32.182857h64.365715l128.731428-160.914285 128.731429 128.731428h64.365714l128.731429-160.914286v-64.365714h-32.182858l-131.657142 157.988572z" fill="" p-id="5356"></path></svg>